<!DOCTYPE svg PUBLIC "-//W3C//DTD SVG 1.1//EN" "http://www.w3.org/Graphics/SVG/1.1/DTD/svg11.dtd">
<!-- Uploaded to: SVG Repo, www.svgrepo.com, Transformed by: SVG Repo Mixer Tools -->
<svg fill="#7acbc8" version="1.1" id="Layer_1" xmlns="http://www.w3.org/2000/svg" xmlns:xlink="http://www.w3.org/1999/xlink" viewBox="-384 -384 1280.00 1280.00" xml:space="preserve" width="64px" height="64px" stroke="#7acbc8">
<g id="SVGRepo_bgCarrier" stroke-width="0"/>
<g id="SVGRepo_tracerCarrier" stroke-linecap="round" stroke-linejoin="round"/>
<g id="SVGRepo_iconCarrier"> <g> <g> <g> <path d="M0,88.052v335.896h512V88.052H0z M496.294,408.241H15.706v-16.314h480.589V408.241z M71.739,376.223v-16.314h96.361 v16.314H71.739z M496.294,376.223h-312.49v-32.019H56.033v32.019H15.706V103.757h480.589V376.223z"/> <rect x="408.092" y="352.212" width="24.015" height="15.706"/> <rect x="376.074" y="352.212" width="24.015" height="15.706"/> <rect x="176.436" y="224.128" width="24.015" height="15.706"/> <rect x="176.436" y="248.147" width="24.015" height="15.706"/> <polygon points="124.987,269.556 139.445,255.098 153.905,269.556 165.011,258.452 150.551,243.992 165.011,229.534 153.905,218.428 139.445,232.887 124.987,218.428 113.881,229.534 128.34,243.992 113.881,258.452 "/> <polygon points="222.014,269.556 236.474,255.098 250.933,269.556 262.039,258.452 247.58,243.992 262.039,229.534 250.933,218.428 236.474,232.887 222.014,218.428 210.909,229.534 225.368,243.992 210.909,258.452 "/> <polygon points="362.999,218.428 348.54,232.886 334.082,218.428 322.976,229.534 337.434,243.992 322.976,258.452 334.082,269.556 348.54,255.098 362.999,269.556 374.106,258.452 359.646,243.992 374.106,229.534 "/> <polygon points="288.504,278.364 317.96,199.815 392.567,199.815 392.567,184.109 307.076,184.109 288.504,233.635 269.932,184.109 240.476,184.109 240.476,199.815 259.048,199.815 "/> </g> </g> </g> </g>
</svg>